<?xml version="1.0" encoding="utf-8"?>
<!-- Generator: Adobe Illustrator 28.2.0, SVG Export Plug-In . SVG Version: 6.00 Build 0)  -->
<svg version="1.1" id="Layer_1" xmlns="http://www.w3.org/2000/svg" xmlns:xlink="http://www.w3.org/1999/xlink" x="0px" y="0px"
	 viewBox="0 0 1190.55 841.89" style="enable-background:new 0 0 1190.55 841.89;" xml:space="preserve">
<style type="text/css">
	.st0{fill:url(#SVGID_1_);}
	.st1{fill:#212844;}
	.st2{fill:#E35F25;}
</style>
<linearGradient id="SVGID_1_" gradientUnits="userSpaceOnUse" x1="595.2756" y1="279.2127" x2="595.2756" y2="562.6772">
	<stop  offset="0" style="stop-color:#E35F25"/>
	<stop  offset="0.1565" style="stop-color:#E46226"/>
	<stop  offset="0.3092" style="stop-color:#E56B27"/>
	<stop  offset="0.4604" style="stop-color:#E8792B"/>
	<stop  offset="0.6108" style="stop-color:#EC8D32"/>
	<stop  offset="0.7606" style="stop-color:#F1A63D"/>
	<stop  offset="0.9079" style="stop-color:#F8C64D"/>
	<stop  offset="1" style="stop-color:#FEDE59"/>
</linearGradient>
<path class="st0" d="M536.41,314.65h51.97v196.07c0,28.7-23.27,51.97-51.97,51.97h0V314.65z M447.9,292.95L240.94,562.66h44.67
	l108.54-141.44c20.86-27.18,64.3-12.43,64.3,21.83v67.66c0,28.7,23.25,51.97,51.97,51.97v-248.5
	C510.43,280.86,468.18,266.52,447.9,292.95z M536.41,302.83h51.97v-23.62h-28.35C546.98,279.21,536.41,289.8,536.41,302.83z
	 M887.07,292.96l-170.2,221.83c-7.97,10.38-24.57,4.75-24.57-8.35V331.18c0-28.7-23.27-51.97-51.97-51.97h-40.15v23.62h14.17
	c14.35,0,25.98,11.63,25.98,25.98v181.9c0,14.35,5.82,27.33,15.22,36.75c9.4,9.4,22.4,15.22,36.75,15.22v-0.02
	c20.48,0,39.82-9.53,52.28-25.78l88.75-115.65c20.85-27.18,64.3-12.43,64.3,21.83v67.65c0,28.7,23.27,51.97,51.97,51.97h0V314.2
	C949.61,280.88,907.36,266.55,887.07,292.96z"/>
<g>
	<path class="st1" d="M536.41,314.65h51.97v196.07c0,28.7-23.27,51.97-51.97,51.97h0V314.65z"/>
	<path class="st2" d="M536.41,302.83h51.97v-23.62h-28.35C546.98,279.21,536.41,289.8,536.41,302.83z"/>
	<path class="st1" d="M240.94,562.67h29.78l123.43-160.86c20.86-27.18,64.31-12.43,64.31,21.83v87.06
		c0,28.7,23.27,51.97,51.97,51.97h0V314.18c0-33.31-42.25-47.65-62.53-21.22L240.94,562.67z"/>
	<path class="st1" d="M949.61,314.18v248.48c-28.7,0-51.97-23.27-51.97-51.97v-87.07c0-34.25-43.45-49-64.3-21.82L723.9,544.44
		c-8.82,11.49-22.48,18.23-36.96,18.23h0c-25.73,0-46.59-20.86-46.59-46.59V328.82c0-14.35-11.63-25.98-25.98-25.98h-14.17v-23.62
		h40.15c28.7,0,51.97,23.27,51.97,51.97v175.33c0,13.06,16.56,18.68,24.51,8.32l170.27-221.89
		C907.36,266.54,949.61,280.87,949.61,314.18z"/>
</g>
</svg>
